nColumns=19
nRows=32
DataType=double
version=3
OpenSimVersion=4.1
endheader
time	ground_force_calcn_r_vx	ground_force_calcn_r_vy	ground_force_calcn_r_vz	ground_force_calcn_r_px	ground_force_calcn_r_py	ground_force_calcn_r_pz	ground_force_calcn_r_mx	ground_force_calcn_r_my	ground_force_calcn_r_mz	ground_force_calcn_l_vx	ground_force_calcn_l_vy	ground_force_calcn_l_vz	ground_force_calcn_l_px	ground_force_calcn_l_py	ground_force_calcn_l_pz	ground_force_calcn_l_mx	ground_force_calcn_l_my	ground_force_calcn_l_mz
3.28	5.30794	496.77	-27.0174	-0.273234	0	-0.413585	-0.104731	-9.80178	0.53308	1.91815	435.718	40.1388	-0.261678	0	-0.853778	0.0314659	7.14766	0.658449
3.29	4.28864	497.55	-26.0791	-0.272663	0	-0.413731	-0.0854276	-9.91097	0.519483	2.61751	443.678	40.5423	-0.260884	0	-0.85378	0.0425597	7.21405	0.659202
3.3	3.34892	498.18	-25.2161	-0.272034	0	-0.41381	-0.0674329	-10.0312	0.507743	3.31083	450.626	40.9805	-0.260055	0	-0.85387	0.053398	7.26784	0.660946
3.31	2.53469	498.745	-24.4493	-0.271377	0	-0.413827	-0.0516388	-10.1608	0.498101	3.95118	456.31	41.4082	-0.259193	0	-0.854036	0.0632593	7.30563	0.662956
3.32	1.88401	499.323	-23.7943	-0.270718	0	-0.413791	-0.03885	-10.2965	0.490659	4.5042	460.504	41.7705	-0.258305	0	-0.854264	0.0716366	7.32404	0.664335
3.33	1.42424	499.988	-23.2602	-0.270079	0	-0.413713	-0.0297203	-10.4335	0.485382	4.94445	463.02	42.0096	-0.257395	0	-0.85454	0.078168	7.31999	0.66414
3.34	1.16818	500.805	-22.8505	-0.269473	0	-0.413604	-0.0246466	-10.5661	0.482106	5.2546	463.722	42.07	-0.256466	0	-0.854846	0.0826137	7.29071	0.661431
3.35	1.11198	501.839	-22.5636	-0.268908	0	-0.413476	-0.0236831	-10.6883	0.480565	5.42802	462.549	41.9007	-0.255521	0	-0.85517	0.0848914	7.23402	0.655305
3.36	1.23612	503.151	-22.3933	-0.268388	0	-0.413342	-0.0265181	-10.7939	0.480396	5.46981	459.521	41.4609	-0.254564	0	-0.855494	0.0850948	7.14884	0.645013
3.37	1.5114	504.789	-22.3289	-0.267912	0	-0.413209	-0.0325688	-10.8775	0.481159	5.39574	454.748	40.7252	-0.253598	0	-0.855806	0.0834776	7.03542	0.630061
3.38	1.90396	506.784	-22.3568	-0.267482	0	-0.41309	-0.041081	-10.9347	0.482383	5.22622	448.416	39.6869	-0.25263	0	-0.856091	0.0803646	6.89538	0.610274
3.39	2.37584	509.14	-22.4617	-0.267096	0	-0.412994	-0.0511532	-10.9621	0.483614	4.98192	440.77	38.3585	-0.251667	0	-0.856339	0.0760844	6.73148	0.585815
3.4	2.88474	511.822	-22.6271	-0.266749	0	-0.412924	-0.0617597	-10.9577	0.484425	4.68355	432.094	36.7681	-0.250715	0	-0.856543	0.0709694	6.54748	0.557145
3.41	3.38763	514.758	-22.8325	-0.26644	0	-0.412887	-0.0718675	-10.9205	0.484385	4.3531	422.686	34.9543	-0.249788	0	-0.856698	0.0653751	6.34792	0.524945
3.42	3.8477	517.845	-23.0551	-0.266167	0	-0.412886	-0.0806221	-10.8506	0.483082	4.01388	412.83	32.9605	-0.248897	0	-0.856795	0.0596758	6.13768	0.490035
3.43	4.23695	520.956	-23.2724	-0.265932	0	-0.412921	-0.0874232	-10.7492	0.480192	3.68867	402.787	30.8337	-0.248061	0	-0.856837	0.0542328	5.92198	0.453333
3.44	4.53444	523.965	-23.464	-0.265731	0	-0.412993	-0.0918933	-10.6185	0.475513	3.39891	392.802	28.6241	-0.247298	0	-0.856822	0.049376	5.70625	0.415824
3.45	4.72393	526.752	-23.6139	-0.265565	0	-0.4131	-0.0938208	-10.4617	0.468991	3.16448	383.112	26.3863	-0.246625	0	-0.856753	0.0453958	5.49591	0.378523
3.46	4.79313	529.21	-23.7125	-0.265429	0	-0.413237	-0.0931326	-10.2828	0.460745	3.00245	373.939	24.1776	-0.246059	0	-0.856638	0.0425233	5.29604	0.342424
3.47	4.73603	531.245	-23.7556	-0.265318	0	-0.413397	-0.0899191	-10.0863	0.451027	2.92572	365.485	22.056	-0.245617	0	-0.85649	0.0409158	5.11127	0.30845
3.48	4.55501	532.775	-23.7431	-0.265229	0	-0.413573	-0.0844459	-9.87717	0.440176	2.94245	357.921	20.0766	-0.245308	0	-0.856324	0.040658	4.94567	0.277413
3.49	4.25827	533.72	-23.6783	-0.265155	0	-0.413757	-0.0770733	-9.66015	0.428568	3.05592	351.376	18.2876	-0.24514	0	-0.856155	0.0417686	4.80265	0.249956
3.5	3.85513	534.009	-23.5665	-0.265087	0	-0.41394	-0.0681484	-9.43986	0.416594	3.26395	345.927	16.7277	-0.245108	0	-0.856	0.0442016	4.68467	0.226533
3.51	3.35394	533.58	-23.4163	-0.265017	0	-0.414112	-0.0579581	-9.22058	0.404648	3.56038	341.602	15.4259	-0.245211	0	-0.855879	0.0478724	4.59314	0.207414
3.52	2.76441	532.396	-23.2389	-0.264933	0	-0.414265	-0.0467638	-9.00619	0.393117	3.9376	338.387	14.4017	-0.245433	0	-0.855805	0.0526949	4.52846	0.192731
3.53	2.09793	530.438	-23.0459	-0.264822	0	-0.41439	-0.0348047	-8.79997	0.382332	4.38765	336.242	13.6693	-0.24576	0	-0.855794	0.0585937	4.49025	0.182542
3.54	1.36605	527.712	-22.8465	-0.264674	0	-0.414482	-0.0222737	-8.60446	0.372517	4.90159	335.115	13.2394	-0.246171	0	-0.855859	0.065491	4.47753	0.176893
3.55	0.578436	524.247	-22.6449	-0.264484	0	-0.414539	-0.00929198	-8.42148	0.363766	5.46816	334.952	13.1199	-0.246643	0	-0.85601	0.0732816	4.48887	0.175827
3.56	-0.257193	520.103	-22.4406	-0.264242	0	-0.414557	0.00408081	-8.25231	0.356058	6.07277	335.698	13.3135	-0.247155	0	-0.856252	0.081813	4.52255	0.17936
3.57	-1.13419	515.367	-22.2287	-0.263946	0	-0.41454	0.0178211	-8.09776	0.349271	6.69799	337.288	13.8145	-0.247687	0	-0.856586	0.0908832	4.57657	0.187445
3.58	-2.04406	510.152	-22.0011	-0.263597	0	-0.414489	0.0318867	-7.95821	0.34321	7.32597	339.651	14.6085	-0.248226	0	-0.857006	0.100262	4.6484	0.19993
3.59	-2.97241	504.587	-21.7484	-0.263202	0	-0.414409	0.0461457	-7.83354	0.337636	7.94075	342.7	15.6724	-0.24876	0	-0.857501	0.109719	4.73516	0.216549
